<svg xmlns="http://www.w3.org/2000/svg" width="448.99" height="177.708"><path d="m448.99 138.706-.104-75.77v-.035l-.037-27.413v-.013a20.303 20.303 0 0 0-8.965-16.828 20.32 20.32 0 0 0-18.982-1.992c-15.79 6.368-33.86 3.747-47.16-6.84-16.517-13.15-39.561-13.08-56.038.168-12.073 9.705-28.951 9.76-41.046.13-16.517-13.148-39.56-13.079-56.039.168-12.073 9.706-28.95 9.76-41.046.131-16.516-13.148-39.56-13.079-56.038.168-12.073 9.706-28.951 9.76-41.046.131-16.517-13.149-39.561-13.079-56.038.168l-4.954 3.983C7.811 25.864-.024 42.238 0 59.785l.08 57.465.044 32.346v.06c.023 5.663 2.256 10.882 6.095 14.703a21.083 21.083 0 0 0 5.79 4.077c7.331 3.506 15.823 2.517 22.162-2.58 12.073-9.704 28.951-9.758 41.046-.13 16.517 13.149 39.56 13.08 56.039-.168 12.072-9.705 28.95-9.759 41.045-.13 16.517 13.148 39.56 13.079 56.039-.169 12.072-9.705 28.95-9.759 41.046-.13 16.517 13.148 39.561 13.079 56.038-.169 12.073-9.705 28.951-9.76 41.046-.13 16.667 13.267 39.306 16.558 59.09 8.592l.034-.013c14.233-5.74 23.418-19.361 23.397-34.703zM436.87 35.49h-.011zM12.081 119.62l-.082-59.853c-.02-13.886 6.183-26.846 17.016-35.554l4.954-3.984c12.073-9.705 28.951-9.76 41.046-.131 16.518 13.15 39.561 13.08 56.038-.167 12.073-9.705 28.951-9.76 41.046-.132 16.518 13.15 39.561 13.08 56.038-.167 12.073-9.706 28.952-9.76 41.047-.132 16.517 13.15 39.56 13.08 56.038-.167 12.073-9.705 28.952-9.76 41.046-.131 16.675 13.274 39.33 16.561 59.122 8.579 2.616-1.055 5.453-.758 7.787.814 2.328 1.568 3.667 4.082 3.67 6.895h.002c0 .108.002.214.008.32-.008.282-.008.548-.008.791l.03 22.176.017 12.93.092 67.012c.014 10.404-6.21 19.644-15.86 23.548l-.028.01c-15.79 6.369-33.86 3.749-47.16-6.838-16.517-13.15-39.561-13.08-56.039.167-12.072 9.705-28.95 9.76-41.046.131-16.517-13.149-39.561-13.079-56.038.168-12.073 9.705-28.952 9.76-41.046.131-16.517-13.149-39.562-13.079-56.038.168-12.073 9.705-28.952 9.76-41.047.13-16.517-13.148-39.56-13.079-56.038.169-2.75 2.21-6.289 2.624-9.464 1.105-3.165-1.513-5.058-4.515-5.063-8.028 0-.085-.002-.17-.006-.256.004-.115.005-.232.005-.351l-.018-13.971" fill="#f65656"/><g style="line-height:0%;-inkscape-font-specification:'Commando Bold';fill:#666"><path d="M37.413 111.75q0-1.813.96-3.093.96-1.386 2.347-1.386 2.666 0 4.693 3.733 1.173 2.24 5.12 4.267 3.947 1.92 7.36 1.92 4.267 0 7.787-4.694 3.626-4.8 3.626-7.36 0-.426-.32-1.173-.32-.853-1.813-2.24-1.387-1.387-3.627-2.027-3.626-1.066-7.893-2.666-4.267-1.707-6.293-2.134-3.2-.64-8.427-4.48-5.227-3.84-5.227-8.106 0-4.267 6.08-10.987t15.04-8.64l10.667-.96q2.88 0 4.373.747 1.494.64 3.734 3.2 3.626 4.16 3.626 6.08 0 2.666-2.773 2.666-2.347 0-4.8-2.453-2.347-2.56-5.867-2.56-4.8 0-10.026 2.773-5.12 2.667-8.107 5.654-2.987 2.88-2.987 4.16 0 .853 1.174 2.026 1.28 1.067 4.16 2.56 2.986 1.494 7.04 2.667 11.2 3.307 15.466 6.507 4.267 3.2 4.267 8.96 0 5.013-1.813 9.066-1.494 3.52-5.867 7.254-4.373 3.84-8.96 3.84-3.307 0-8.64-.96-5.227-.854-8.107-2.134-2.346-1.173-4.16-4.16-1.813-3.093-1.813-5.866zM92.88 74.204q0-2.027 2.986-4.587 2.987-2.56 2.987-3.946 0-2.347 1.493-5.547 1.493-3.2 4.693-3.2 2.134 0 3.414 1.707 1.386 1.6 1.92 1.6.96 0 8.32-1.6 7.36-1.707 13.226-1.707 4.907 0 10.774 1.173 12.373 2.667 12.373 14.614 0 9.066-6.72 22.613-4.587 9.387-11.733 14.507-7.147 5.12-15.36 5.12-2.134 0-3.52-.214l-3.2-.426.853 3.626q4.16 17.494 4.16 22.72 0 4.587-4.8 4.587-3.093 0-4.587-1.813-1.92-2.454-4.48-14.934-2.453-12.373-4.266-32-.64-6.826-1.067-10.56-.32-3.84-.747-5.653-.426-1.92-.746-2.347-.32-.426-.96-.426-5.014 0-5.014-3.307zm48.96-6.187q-1.28-.64-6.294-.64-10.347 0-18.453 2.347l-6.72 2.027.213 5.866q.32 8.107 1.28 17.387 1.067 9.28 1.92 9.28 2.133 0 4.48 1.387 2.347 1.28 3.413 1.28 4.054 0 9.6-5.227 5.654-5.227 9.707-12.693 4.053-7.574 4.053-13.334 0-2.133-.746-3.946-.747-1.92-1.494-2.667-.64-.853-.96-1.067zm71.04 8.32q0-.853-4.694-4.373-3.413-2.56-4.907-3.2-1.386-.64-4.053-.64-5.333 0-7.893.853-2.454.747-5.227 3.414-8.213 8-8.32 10.346.427.107 1.813.107 10.347 0 28.694-3.627 4.586-.853 4.586-2.88zm13.76 16.854q1.92 0 1.92 2.24 0 2.453-3.094 7.04-3.093 4.48-6.187 7.253-11.946 10.24-24.64 10.24-10.453 0-18.88-8.213-8.426-8.214-8.426-22.614 0-4.053 1.173-7.786 2.24-6.614 10.027-13.76 7.786-7.254 14.933-7.254 1.92 0 5.653.32 5.76.427 8.107 1.174 2.453.64 5.547 2.666 3.413 2.24 6.186 6.4 2.774 4.054 2.774 7.147 0 4.053-3.307 5.973t-11.2 3.52q-10.347 2.027-21.333 2.667l-9.28.427v2.773q0 3.947 1.706 6.933 1.814 2.987 5.76 6.294 5.654 4.693 11.52 4.693 4.694 0 9.92-2.773 5.227-2.88 8.854-6.294 3.733-3.413 7.146-6.186 3.52-2.88 5.12-2.88zm66.026-1.814q2.56 0 2.56 3.307 0 2.56-5.334 9.173-5.333 6.507-9.28 9.174-9.493 6.293-17.066 6.293-5.547 0-11.947-2.88-6.507-2.88-9.387-7.787-2.88-5.013-3.52-14.4 0-.96-.213-2.773-.107-1.92-.107-2.773 0-8.214 8.427-16.854 8.533-8.746 15.253-10.346 2.987-.747 7.787-.747 9.173 0 16 5.547 6.827 5.546 6.827 11.306 0 1.92-1.174 3.627-1.066 1.707-2.88 1.707-.426 0-.96-.107-.533-.107-1.706-1.173-1.067-1.067-1.28-2.987-.107-.747-1.28-2.56-1.067-1.813-2.134-2.88-1.28-1.387-2.026-1.92-.64-.533-3.84-1.173-3.2-.747-8.64-.747-4.054 0-6.08 1.28-2.027 1.173-5.227 5.227-8 9.92-8 17.706 0 4.054 1.067 6.827 1.066 2.667 1.813 3.413.747.747 2.987 2.56 2.986 2.56 4.586 3.307 1.6.64 4.48.64 9.174 0 20.587-12.16 6.4-6.827 9.707-6.827zm57.706 24.533q-2.666-.213-6.293-2.56-3.52-2.453-4.16-2.453-1.173 0-1.92-.426-.64-.427-.747-.854l-.213-.426q-1.493-1.067-13.867-4.907l-4.053-1.28.64 6.4q.427 3.627.427 5.227 0 5.76-4.054 5.76-4.48 0-5.546-5.12-1.067-5.12-1.814-24.107-.853-17.387-1.6-21.44-2.24-11.52-2.24-29.867 0-5.546 3.84-5.546 2.987 0 4.267 3.306.64 1.6 1.493 9.494.854 7.893 1.814 17.493.96 9.6 1.6 13.44l.533 3.413 11.52-10.133q.853-.747 2.24-2.027l2.24-1.92q.853-.746 2.027-1.813l1.92-1.6q.746-.64 1.706-1.387 1.067-.746 1.707-1.173l1.28-.853q.747-.427 1.28-.534.533-.213.96-.213 1.707.213 2.773 1.6 1.174 1.28 1.174 2.773 0 1.28-.64 1.92-.534.64-2.24 2.134-1.707 1.386-3.307 3.626-4.48 6.294-19.093 16.214-4.054 2.773-4.267 4.16 0 .746 1.28 1.28l12.907 5.12.746.426q.854.32 1.707.747.96.32 2.347.96 1.386.64 2.666 1.387 1.387.64 2.88 1.493 1.6.853 2.88 1.707 1.387.746 2.56 1.706 1.28.96 2.134 1.814.96.853 1.493 1.813.533.853.533 1.707 0 1.6-.96 2.56t-2.56.96zm23.147-50.773q2.453 0 3.093 1.92.747 1.92.747 5.654 0 4.693-.107 9.6-.106 4.906-.106 8.213 0 13.973 2.453 13.973 1.493 0 6.293-4.586 4.8-4.587 6.934-8.96 2.24-4.48 3.733-10.347 1.6-5.867 2.24-9.6.747-3.733 2.24-6.4 1.6-2.773 4.16-2.773 1.813 0 3.093 1.28 1.387 1.28 1.387 3.306 0 1.814-2.453 10.88-2.347 8.96-2.347 18.88 0 3.307.32 6.08l.32 1.174 1.92-.854q2.56-1.28 4.693-1.28 1.92 0 2.987.96 1.173.854 1.173 2.24 0 3.307-5.226 5.974l-3.627 1.706.533 10.667q-.64 19.413-1.6 20.693-1.28 1.92-3.946 1.92-2.56 0-8-2.026-3.094-1.28-4.907-2.774-1.707-1.493-3.307-4.48-3.413-6.4-3.413-11.52 0-1.706.427-2.773.533-.96 1.92-2.773 1.493-1.707 2.56-3.307 1.28-1.92 3.84-3.093 2.56-1.28 2.773-1.494.533-.426 2.773-1.813 0-3.307-1.173-5.867l-2.453 2.454q-2.134 2.026-3.84 3.52-1.707 1.386-4.694 2.773-2.88 1.387-5.653 1.387-5.547 0-8.747-5.76-1.493-2.667-1.92-5.867-.426-3.2-.426-12.053 0-13.44.853-19.094.96-5.76 4.48-5.76zm25.493 70.72q.534-1.173.534-3.733 0-2.027-.427-4.8-.32-2.667-.747-4.587-.426-1.813-.426-1.92l-.214-2.453-.96 1.28q-4.16 5.76-4.16 9.493 0 1.387 2.56 3.734 2.56 2.453 3.84 2.986z" style="-inkscape-font-specification:'Purisa Bold';fill:#666" aria-label="specky" font-weight="700" font-size="106.667" font-family="Purisa" letter-spacing="0" word-spacing="0"/></g></svg>