<svg width="329.759" height="82.848" xmlns="http://www.w3.org/2000/svg"><defs><path id="a" d="M23.16 29.545h410.074v122.942H23.16z"/></defs><g aria-label="spectro" transform="translate(-26.232 -55.347)" style="font-size:96px;line-height:1.25;font-family:'Helvetica Neue';-inkscape-font-specification:'Helvetica Neue, Normal';letter-spacing:0;white-space:pre;shape-inside:url(#a);fill:#23898d;fill-opacity:1"><path d="M37.176 103.923q.48 4.8 3.648 6.72t7.584 1.92q1.536 0 3.456-.192 2.016-.288 3.744-.96 1.728-.672 2.784-1.92 1.152-1.344 1.056-3.456-.096-2.112-1.536-3.456-1.44-1.344-3.744-2.112-2.208-.864-5.088-1.44t-5.856-1.248q-3.072-.672-5.952-1.632-2.784-.96-5.088-2.592-2.208-1.632-3.552-4.128-1.344-2.592-1.344-6.336 0-4.032 1.92-6.72 2.016-2.784 4.992-4.416 3.072-1.728 6.72-2.4 3.744-.672 7.104-.672 3.84 0 7.296.864 3.552.768 6.336 2.592 2.88 1.824 4.704 4.8 1.92 2.88 2.4 7.008H57.336q-.768-3.936-3.648-5.28-2.784-1.344-6.432-1.344-1.152 0-2.784.192-1.536.192-2.976.768-1.344.48-2.304 1.536-.96.96-.96 2.592 0 2.016 1.344 3.264 1.44 1.248 3.648 2.112 2.304.768 5.184 1.344 2.88.576 5.952 1.248 2.976.672 5.856 1.632 2.88.96 5.088 2.592 2.304 1.632 3.648 4.128 1.44 2.496 1.44 6.144 0 4.416-2.016 7.488t-5.28 4.992q-3.168 1.92-7.104 2.784-3.936.864-7.776.864-4.704 0-8.736-1.056-3.936-1.056-6.912-3.168-2.88-2.208-4.608-5.376-1.632-3.264-1.728-7.68z" style="fill:#23898d;fill-opacity:1"/><path d="M79.032 70.227H89.4v6.72h.192q2.304-4.32 6.432-6.144 4.128-1.92 8.928-1.92 5.856 0 10.176 2.112 4.416 2.016 7.296 5.664 2.88 3.552 4.32 8.352 1.44 4.8 1.44 10.272 0 4.992-1.344 9.696-1.248 4.704-3.936 8.352-2.592 3.552-6.624 5.76-4.032 2.112-9.504 2.112-2.4 0-4.8-.48-2.4-.384-4.608-1.344-2.208-.96-4.128-2.4-1.824-1.536-3.072-3.552h-.192v24.768H79.032zM117.24 95.09q0-3.36-.864-6.528-.864-3.168-2.592-5.568-1.728-2.496-4.32-3.936-2.592-1.536-5.952-1.536-6.912 0-10.464 4.8-3.456 4.8-3.456 12.768 0 3.744.864 7.008.96 3.168 2.784 5.472 1.824 2.304 4.32 3.648 2.592 1.344 5.952 1.344 3.744 0 6.336-1.536t4.224-3.936q1.728-2.496 2.4-5.568.768-3.168.768-6.432z" style="fill:#97d83d;fill-opacity:1"/><path d="M171.48 90.675q-.192-2.592-1.152-4.992-.864-2.4-2.496-4.128-1.536-1.824-3.84-2.88-2.208-1.152-4.992-1.152-2.88 0-5.28 1.056-2.304.96-4.032 2.784-1.632 1.728-2.688 4.128-.96 2.4-1.056 5.184zm-25.536 7.2q0 2.88.768 5.568.864 2.688 2.496 4.704 1.632 2.016 4.128 3.264 2.496 1.152 5.952 1.152 4.8 0 7.68-2.016 2.976-2.112 4.416-6.24h10.368q-.864 4.032-2.976 7.2t-5.088 5.376q-2.976 2.112-6.72 3.168-3.648 1.152-7.68 1.152-5.856 0-10.368-1.92-4.512-1.92-7.68-5.376-3.072-3.456-4.704-8.256Q135 100.85 135 95.09q0-5.28 1.632-9.984 1.728-4.8 4.8-8.352 3.168-3.648 7.584-5.76 4.416-2.112 9.984-2.112 5.856 0 10.464 2.496 4.704 2.4 7.776 6.432t4.416 9.312q1.44 5.184.768 10.752z" style="fill:#ece41a;fill-opacity:1"/><path d="M224.28 86.835q-.672-4.608-3.744-6.912-2.976-2.4-7.584-2.4-2.112 0-4.512.768-2.4.672-4.416 2.688-2.016 1.92-3.36 5.472-1.344 3.456-1.344 9.12 0 3.072.672 6.144.768 3.072 2.304 5.472 1.632 2.4 4.128 3.936 2.496 1.44 6.048 1.44 4.8 0 7.872-2.976 3.168-2.976 3.936-8.352h10.944q-1.536 9.696-7.392 14.88-5.76 5.088-15.36 5.088-5.856 0-10.368-1.92-4.416-2.016-7.488-5.376-3.072-3.456-4.704-8.16-1.536-4.704-1.536-10.176 0-5.568 1.536-10.464 1.536-4.896 4.608-8.448 3.072-3.648 7.584-5.664 4.608-2.112 10.752-2.112 4.32 0 8.16 1.152 3.936 1.056 6.912 3.264 3.072 2.208 4.992 5.568 1.92 3.36 2.304 7.968z" style="fill:#208f8c;fill-opacity:1"/><path d="M239.16 70.227h8.256v-14.88h10.944v14.88h9.888v8.16h-9.888v26.496q0 1.728.096 2.976.192 1.248.672 2.112.576.864 1.632 1.344 1.056.384 2.88.384h2.304q1.152-.096 2.304-.384v8.448q-1.824.192-3.552.384t-3.552.192q-4.32 0-7.008-.768-2.592-.864-4.128-2.4-1.44-1.632-2.016-4.032-.48-2.4-.576-5.472v-29.28h-8.256z" style="fill:#462d7c;fill-opacity:1"/><path d="M276.12 70.227h10.272v9.6h.192q.48-2.016 1.824-3.936 1.44-1.92 3.36-3.456 2.016-1.632 4.416-2.592 2.4-.96 4.896-.96 1.92 0 2.592.096l1.536.192v10.56q-1.152-.192-2.4-.288-1.152-.192-2.304-.192-2.784 0-5.28 1.152-2.4 1.056-4.224 3.264-1.824 2.112-2.88 5.28-1.056 3.168-1.056 7.296v23.616H276.12z" style="fill:#440154;fill-opacity:1"/><path d="M330.935 121.203q-5.952 0-10.656-1.92-4.608-2.016-7.872-5.472-3.168-3.456-4.896-8.256-1.632-4.8-1.632-10.56 0-5.664 1.632-10.464 1.728-4.8 4.896-8.256 3.264-3.456 7.872-5.376 4.704-2.016 10.656-2.016 5.952 0 10.56 2.016 4.704 1.92 7.872 5.376 3.264 3.456 4.896 8.256 1.728 4.8 1.728 10.464 0 5.76-1.728 10.56-1.632 4.8-4.896 8.256-3.168 3.456-7.872 5.472-4.608 1.92-10.56 1.92zm0-8.64q3.648 0 6.336-1.536t4.416-4.032q1.728-2.496 2.496-5.568.864-3.168.864-6.432 0-3.168-.864-6.336-.768-3.168-2.496-5.568-1.728-2.496-4.416-4.032-2.688-1.536-6.336-1.536t-6.336 1.536q-2.688 1.536-4.416 4.032-1.728 2.4-2.592 5.568-.768 3.168-.768 6.336 0 3.264.768 6.432.864 3.072 2.592 5.568 1.728 2.496 4.416 4.032 2.688 1.536 6.336 1.536z" style="fill:#23898d;fill-opacity:1"/></g></svg>